<?xml version="1.0" encoding="UTF-8" standalone="no"?>
<!-- Created with Inkscape (http://www.inkscape.org/) -->

<svg
   xmlns:dc="http://purl.org/dc/elements/1.1/"
   xmlns:cc="http://creativecommons.org/ns#"
   xmlns:rdf="http://www.w3.org/1999/02/22-rdf-syntax-ns#"
   xmlns:svg="http://www.w3.org/2000/svg"
   xmlns="http://www.w3.org/2000/svg"
   xmlns:sodipodi="http://sodipodi.sourceforge.net/DTD/sodipodi-0.dtd"
   xmlns:inkscape="http://www.inkscape.org/namespaces/inkscape"
   width="100"
   height="100"
   viewBox="0 0 100 100"
   id="svg2"
   version="1.1"
   inkscape:version="0.91 r13725"
   sodipodi:docname="locate.svg">
  <defs
     id="defs4" />
  <sodipodi:namedview
     id="base"
     pagecolor="#ffffff"
     bordercolor="#666666"
     borderopacity="1.0"
     inkscape:pageopacity="0.0"
     inkscape:pageshadow="2"
     inkscape:zoom="4.2440064"
     inkscape:cx="15.383575"
     inkscape:cy="33.26505"
     inkscape:document-units="px"
     inkscape:current-layer="layer2"
     showgrid="true"
     showborder="false"
     units="px"
     showguides="true"
     inkscape:guide-bbox="true"
     inkscape:window-width="1920"
     inkscape:window-height="1035"
     inkscape:window-x="0"
     inkscape:window-y="1"
     inkscape:window-maximized="1"
     fit-margin-top="0"
     fit-margin-left="0"
     fit-margin-right="0"
     fit-margin-bottom="0">
    <inkscape:grid
       type="xygrid"
       id="grid4136"
       empspacing="5"
       originx="0"
       originy="-2.4999974" />
  </sodipodi:namedview>
  <metadata
     id="metadata7">
    <rdf:RDF>
      <cc:Work
         rdf:about="">
        <dc:format>image/svg+xml</dc:format>
        <dc:type
           rdf:resource="http://purl.org/dc/dcmitype/StillImage" />
        <dc:title />
      </cc:Work>
    </rdf:RDF>
  </metadata>
  <g
     inkscape:groupmode="layer"
     id="layer2"
     inkscape:label="circle"
     style="display:inline"
     transform="translate(0,-949.86218)">
    <path
       style="opacity:1;fill:#000000;fill-opacity:1;fill-rule:nonzero;stroke:none;stroke-opacity:1"
       d="M 50 0 C 45.845 0 42.5 3.345 42.5 7.5 L 42.5 20.974609 A 30 30 0 0 1 50 20 A 30 30 0 0 1 57.5 20.990234 L 57.5 7.5 C 57.5 3.345 54.155 0 50 0 z M 7.5 42.5 C 3.345 42.5 0 45.845 0 50 C 0 54.15502 3.345 57.5 7.5 57.5 L 20.974609 57.5 A 30 30 0 0 1 20 50 A 30 30 0 0 1 20.990234 42.5 L 7.5 42.5 z M 79.025391 42.5 A 30 30 0 0 1 80 50 A 30 30 0 0 1 79.009766 57.5 L 92.5 57.5 C 96.655 57.5 100 54.15502 100 50 C 100 45.845 96.655 42.5 92.5 42.5 L 79.025391 42.5 z M 42.5 79.009766 L 42.5 92.5 C 42.5 96.655 45.845 100 50 100 C 54.155 100 57.5 96.655 57.5 92.5 L 57.5 79.025391 A 30 30 0 0 1 50 80 A 30 30 0 0 1 42.5 79.009766 z "
       transform="translate(0,949.86218)"
       id="rect4148"
       inkscape:export-xdpi="90"
       inkscape:export-ydpi="90" />
    <circle
       style="opacity:1;fill:#000000;fill-opacity:1;fill-rule:nonzero;stroke:#000000;stroke-width:0.37037045;stroke-opacity:1"
       id="circle4179"
       cx="50"
       cy="999.86218"
       r="14.814815" />
    <path
       style="opacity:1;fill:#000000;fill-opacity:1;fill-rule:nonzero;stroke:#000000;stroke-width:1.04938281;stroke-opacity:1"
       d="M 50,957.88757 A 41.975307,41.975307 0 0 0 8.0253908,999.86218 41.975307,41.975307 0 0 0 50,1041.8368 41.975307,41.975307 0 0 0 91.974609,999.86218 41.975307,41.975307 0 0 0 50,957.88757 Z m 0,12.3457 A 29.629629,29.629629 0 0 1 79.628906,999.86218 29.629629,29.629629 0 0 1 50,1029.4911 29.629629,29.629629 0 0 1 20.371094,999.86218 29.629629,29.629629 0 0 1 50,970.23327 Z"
       id="path4146"
       inkscape:connector-curvature="0" />
  </g>
</svg>
