<?xml version="1.0" encoding="UTF-8" standalone="no"?>
<!-- Created with Inkscape (http://www.inkscape.org/) -->

<svg
   xmlns:dc="http://purl.org/dc/elements/1.1/"
   xmlns:cc="http://creativecommons.org/ns#"
   xmlns:rdf="http://www.w3.org/1999/02/22-rdf-syntax-ns#"
   xmlns:svg="http://www.w3.org/2000/svg"
   xmlns="http://www.w3.org/2000/svg"
   xmlns:sodipodi="http://sodipodi.sourceforge.net/DTD/sodipodi-0.dtd"
   xmlns:inkscape="http://www.inkscape.org/namespaces/inkscape"
   width="100"
   height="89.888901"
   viewBox="0 0 100 89.888902"
   id="svg2"
   version="1.1"
   inkscape:version="0.91 r13725"
   sodipodi:docname="school-advising.svg">
  <defs
     id="defs4" />
  <sodipodi:namedview
     id="base"
     pagecolor="#ffffff"
     bordercolor="#666666"
     borderopacity="1.0"
     inkscape:pageopacity="0.0"
     inkscape:pageshadow="2"
     inkscape:zoom="5.6"
     inkscape:cx="-6.2687259"
     inkscape:cy="42.770487"
     inkscape:document-units="px"
     inkscape:current-layer="layer1"
     showgrid="false"
     inkscape:showpageshadow="false"
     showborder="false"
     inkscape:snap-grids="true"
     showguides="false"
     inkscape:guide-bbox="true"
     units="px"
     inkscape:window-width="2556"
     inkscape:window-height="1395"
     inkscape:window-x="0"
     inkscape:window-y="1"
     inkscape:window-maximized="1"
     inkscape:snap-to-guides="true"
     inkscape:object-paths="true"
     inkscape:snap-intersection-paths="true"
     inkscape:object-nodes="true"
     inkscape:snap-smooth-nodes="true"
     fit-margin-top="0"
     fit-margin-left="0"
     fit-margin-right="0"
     fit-margin-bottom="0">
    <inkscape:grid
       type="xygrid"
       id="grid3336"
       spacingx="1"
       spacingy="1"
       empspacing="1"
       originx="50"
       originy="45.000017" />
    <sodipodi:guide
       position="1.0535948e-06,95.000014"
       orientation="1,0"
       id="guide3338" />
    <sodipodi:guide
       position="100,95.000014"
       orientation="1,0"
       id="guide3342" />
    <sodipodi:guide
       position="1.0535948e-06,95.000014"
       orientation="0,1"
       id="guide3344" />
    <sodipodi:guide
       position="100,-4.9999835"
       orientation="0,1"
       id="guide3346" />
    <sodipodi:guide
       position="8,41.000017"
       orientation="1,0"
       id="guide4393" />
    <sodipodi:guide
       position="92,41.000017"
       orientation="1,0"
       id="guide4395" />
    <sodipodi:guide
       position="50,64.000017"
       orientation="0,1"
       id="guide4397" />
  </sodipodi:namedview>
  <metadata
     id="metadata7">
    <rdf:RDF>
      <cc:Work
         rdf:about="">
        <dc:format>image/svg+xml</dc:format>
        <dc:type
           rdf:resource="http://purl.org/dc/dcmitype/StillImage" />
        <dc:title></dc:title>
      </cc:Work>
    </rdf:RDF>
  </metadata>
  <g
     inkscape:groupmode="layer"
     id="layer2"
     inkscape:label="base"
     style="display:none"
     transform="translate(50,-945.11112)">
    <ellipse
       style="fill:#800000;fill-opacity:1;stroke:none;stroke-width:1;stroke-linecap:butt;stroke-linejoin:bevel;stroke-miterlimit:0;stroke-dasharray:none;stroke-opacity:1"
       id="path4496"
       cy="994"
       cx="0"
       rx="72.727158"
       ry="71.969543" />
  </g>
  <g
     inkscape:label="icon"
     inkscape:groupmode="layer"
     id="layer1"
     transform="translate(50,-1007.4733)"
     style="display:inline">
    <g
       id="g4785" />
    <g
       id="g4387"
       transform="translate(21,-19.000016)" />
    <g
       style="display:inline"
       id="g4349"
       transform="translate(0,-27)" />
    <g
       transform="matrix(0.73611047,0,0,0.73611047,84.93154,252.05288)"
       id="g4289">
      <g
         id="g4283"
         transform="matrix(-0.8389275,0,0,0.8389275,-136.3424,173.51306)"
         style="fill:#000000">
        <path
           style="fill:#000000;fill-opacity:1;stroke:#000000;stroke-width:2;stroke-linecap:butt;stroke-linejoin:round;stroke-miterlimit:4;stroke-dasharray:none;stroke-opacity:1"
           id="path4285"
           sodipodi:type="arc"
           sodipodi:cx="-77.500031"
           sodipodi:cy="1046.3622"
           sodipodi:rx="13.500032"
           sodipodi:ry="10.285704"
           sodipodi:start="3.1415927"
           sodipodi:end="3.1384511"
           sodipodi:open="true"
           d="m -91.000063,1046.3622 a 13.500032,10.285704 0 0 1 13.48943,-10.2857 13.500032,10.285704 0 0 1 13.510618,10.2695 13.500032,10.285704 0 0 1 -13.468207,10.3019 13.500032,10.285704 0 0 1 -13.531774,-10.2534" />
        <path
           style="fill:#000000;fill-opacity:1;fill-rule:evenodd;stroke:#000000;stroke-width:1px;stroke-linecap:butt;stroke-linejoin:miter;stroke-opacity:1"
           d="m -87,1054.3622 -6,4 14,-2"
           id="path4287"
           inkscape:connector-curvature="0" />
      </g>
      <g
         id="g4279">
        <path
           d="m -91.000063,1046.3622 a 13.500032,10.285704 0 0 1 13.48943,-10.2857 13.500032,10.285704 0 0 1 13.510618,10.2695 13.500032,10.285704 0 0 1 -13.468207,10.3019 13.500032,10.285704 0 0 1 -13.531774,-10.2534"
           sodipodi:open="true"
           sodipodi:end="3.1384511"
           sodipodi:start="3.1415927"
           sodipodi:ry="10.285704"
           sodipodi:rx="13.500032"
           sodipodi:cy="1046.3622"
           sodipodi:cx="-77.500031"
           sodipodi:type="arc"
           id="path4263"
           style="fill:#ffffff;fill-opacity:1;stroke:#000000;stroke-width:2;stroke-linecap:butt;stroke-linejoin:round;stroke-miterlimit:4;stroke-dasharray:none;stroke-opacity:1" />
        <path
           inkscape:connector-curvature="0"
           id="path4271"
           d="m -87,1054.3622 -6,4 14,-2"
           style="fill:#000000;fill-opacity:1;fill-rule:evenodd;stroke:#000000;stroke-width:1px;stroke-linecap:butt;stroke-linejoin:miter;stroke-opacity:1" />
      </g>
      <path
         style="fill:#000000;fill-opacity:1;stroke:#000000;stroke-width:2;stroke-linecap:butt;stroke-linejoin:round;stroke-miterlimit:4;stroke-dasharray:none;stroke-opacity:1"
         id="path4273"
         sodipodi:type="arc"
         sodipodi:cx="-84.000008"
         sodipodi:cy="1046.3622"
         sodipodi:rx="1"
         sodipodi:ry="1"
         sodipodi:start="3.1415927"
         sodipodi:end="3.1384511"
         sodipodi:open="true"
         d="m -85.000008,1046.3622 a 1,1 0 0 1 0.999215,-1 1,1 0 0 1 1.000784,0.9984 1,1 0 0 1 -0.997642,1.0016 1,1 0 0 1 -1.002352,-0.9969" />
      <path
         d="m -78,1046.3622 a 1,1 0 0 1 0.999215,-1 1,1 0 0 1 1.000784,0.9984 1,1 0 0 1 -0.997643,1.0016 1,1 0 0 1 -1.002351,-0.9969"
         sodipodi:open="true"
         sodipodi:end="3.1384511"
         sodipodi:start="3.1415927"
         sodipodi:ry="1"
         sodipodi:rx="1"
         sodipodi:cy="1046.3622"
         sodipodi:cx="-77"
         sodipodi:type="arc"
         id="path4275"
         style="fill:#000000;fill-opacity:1;stroke:#000000;stroke-width:2;stroke-linecap:butt;stroke-linejoin:round;stroke-miterlimit:4;stroke-dasharray:none;stroke-opacity:1" />
      <path
         style="fill:#000000;fill-opacity:1;stroke:#000000;stroke-width:2;stroke-linecap:butt;stroke-linejoin:round;stroke-miterlimit:4;stroke-dasharray:none;stroke-opacity:1"
         id="path4277"
         sodipodi:type="arc"
         sodipodi:cx="-70"
         sodipodi:cy="1046.3622"
         sodipodi:rx="1"
         sodipodi:ry="1"
         sodipodi:start="3.1415927"
         sodipodi:end="3.1384511"
         sodipodi:open="true"
         d="m -71,1046.3622 a 1,1 0 0 1 0.999215,-1 1,1 0 0 1 1.000784,0.9984 1,1 0 0 1 -0.997643,1.0016 1,1 0 0 1 -1.002351,-0.9969" />
    </g>
    <g
       id="g4300"
       transform="matrix(-0.73611047,0,0,0.73611047,-84.93154,252.05288)">
      <g
         style="fill:#000000"
         transform="matrix(-0.8389275,0,0,0.8389275,-136.3424,173.51306)"
         id="g4302">
        <path
           d="m -91.000063,1046.3622 a 13.500032,10.285704 0 0 1 13.48943,-10.2857 13.500032,10.285704 0 0 1 13.510618,10.2695 13.500032,10.285704 0 0 1 -13.468207,10.3019 13.500032,10.285704 0 0 1 -13.531774,-10.2534"
           sodipodi:open="true"
           sodipodi:end="3.1384511"
           sodipodi:start="3.1415927"
           sodipodi:ry="10.285704"
           sodipodi:rx="13.500032"
           sodipodi:cy="1046.3622"
           sodipodi:cx="-77.500031"
           sodipodi:type="arc"
           id="path4304"
           style="fill:#000000;fill-opacity:1;stroke:#000000;stroke-width:2;stroke-linecap:butt;stroke-linejoin:round;stroke-miterlimit:4;stroke-dasharray:none;stroke-opacity:1" />
        <path
           inkscape:connector-curvature="0"
           id="path4306"
           d="m -87,1054.3622 -6,4 14,-2"
           style="fill:#000000;fill-opacity:1;fill-rule:evenodd;stroke:#000000;stroke-width:1px;stroke-linecap:butt;stroke-linejoin:miter;stroke-opacity:1" />
      </g>
      <g
         id="g4308">
        <path
           style="fill:#ffffff;fill-opacity:1;stroke:#000000;stroke-width:2;stroke-linecap:butt;stroke-linejoin:round;stroke-miterlimit:4;stroke-dasharray:none;stroke-opacity:1"
           id="path4310"
           sodipodi:type="arc"
           sodipodi:cx="-77.500031"
           sodipodi:cy="1046.3622"
           sodipodi:rx="13.500032"
           sodipodi:ry="10.285704"
           sodipodi:start="3.1415927"
           sodipodi:end="3.1384511"
           sodipodi:open="true"
           d="m -91.000063,1046.3622 a 13.500032,10.285704 0 0 1 13.48943,-10.2857 13.500032,10.285704 0 0 1 13.510618,10.2695 13.500032,10.285704 0 0 1 -13.468207,10.3019 13.500032,10.285704 0 0 1 -13.531774,-10.2534" />
        <path
           style="fill:#000000;fill-opacity:1;fill-rule:evenodd;stroke:#000000;stroke-width:1px;stroke-linecap:butt;stroke-linejoin:miter;stroke-opacity:1"
           d="m -87,1054.3622 -6,4 14,-2"
           id="path4312"
           inkscape:connector-curvature="0" />
      </g>
      <path
         d="m -85.000008,1046.3622 a 1,1 0 0 1 0.999215,-1 1,1 0 0 1 1.000784,0.9984 1,1 0 0 1 -0.997642,1.0016 1,1 0 0 1 -1.002352,-0.9969"
         sodipodi:open="true"
         sodipodi:end="3.1384511"
         sodipodi:start="3.1415927"
         sodipodi:ry="1"
         sodipodi:rx="1"
         sodipodi:cy="1046.3622"
         sodipodi:cx="-84.000008"
         sodipodi:type="arc"
         id="path4314"
         style="fill:#000000;fill-opacity:1;stroke:#000000;stroke-width:2;stroke-linecap:butt;stroke-linejoin:round;stroke-miterlimit:4;stroke-dasharray:none;stroke-opacity:1" />
      <path
         style="fill:#000000;fill-opacity:1;stroke:#000000;stroke-width:2;stroke-linecap:butt;stroke-linejoin:round;stroke-miterlimit:4;stroke-dasharray:none;stroke-opacity:1"
         id="path4316"
         sodipodi:type="arc"
         sodipodi:cx="-77"
         sodipodi:cy="1046.3622"
         sodipodi:rx="1"
         sodipodi:ry="1"
         sodipodi:start="3.1415927"
         sodipodi:end="3.1384511"
         sodipodi:open="true"
         d="m -78,1046.3622 a 1,1 0 0 1 0.999215,-1 1,1 0 0 1 1.000784,0.9984 1,1 0 0 1 -0.997643,1.0016 1,1 0 0 1 -1.002351,-0.9969" />
      <path
         d="m -71,1046.3622 a 1,1 0 0 1 0.999215,-1 1,1 0 0 1 1.000784,0.9984 1,1 0 0 1 -0.997643,1.0016 1,1 0 0 1 -1.002351,-0.9969"
         sodipodi:open="true"
         sodipodi:end="3.1384511"
         sodipodi:start="3.1415927"
         sodipodi:ry="1"
         sodipodi:rx="1"
         sodipodi:cy="1046.3622"
         sodipodi:cx="-70"
         sodipodi:type="arc"
         id="path4318"
         style="fill:#000000;fill-opacity:1;stroke:#000000;stroke-width:2;stroke-linecap:butt;stroke-linejoin:round;stroke-miterlimit:4;stroke-dasharray:none;stroke-opacity:1" />
    </g>
    <g
       id="g4326"
       inkscape:export-xdpi="921.59998"
       inkscape:export-ydpi="921.59998">
      <rect
         y="1052.3622"
         x="-46"
         height="31.000126"
         width="92"
         id="rect4191"
         style="display:inline;fill:#000000;fill-opacity:1;stroke:none;stroke-width:1;stroke-linecap:butt;stroke-linejoin:bevel;stroke-miterlimit:0;stroke-dasharray:none;stroke-opacity:1" />
      <rect
         y="1084.3622"
         x="-50"
         height="4"
         width="100"
         id="rect4189"
         style="display:inline;fill:#000000;fill-opacity:1;stroke:none;stroke-width:1;stroke-linecap:butt;stroke-linejoin:bevel;stroke-miterlimit:0;stroke-dasharray:none;stroke-opacity:1" />
      <g
         transform="translate(0,-14)"
         id="g4204">
        <g
           style="display:inline"
           id="g4224"
           transform="translate(1,1)">
          <g
             id="g4216"
             transform="translate(1,-3.0000163)">
            <rect
               style="fill:#ffffff;fill-opacity:1;stroke:none;stroke-width:1;stroke-linecap:butt;stroke-linejoin:bevel;stroke-miterlimit:0;stroke-dasharray:none;stroke-opacity:1"
               id="rect4218"
               width="10"
               height="9.999959"
               x="-44"
               y="1072.3622" />
          </g>
          <g
             id="g4192"
             transform="translate(14,-3.0000163)">
            <rect
               y="1072.3622"
               x="-44"
               height="9.999959"
               width="10"
               id="rect4194"
               style="fill:#ffffff;fill-opacity:1;stroke:none;stroke-width:1;stroke-linecap:butt;stroke-linejoin:bevel;stroke-miterlimit:0;stroke-dasharray:none;stroke-opacity:1" />
          </g>
          <g
             transform="translate(1,9.9999835)"
             id="g4196">
            <rect
               y="1072.3622"
               x="-44"
               height="9.999959"
               width="10"
               id="rect4198"
               style="fill:#ffffff;fill-opacity:1;stroke:none;stroke-width:1;stroke-linecap:butt;stroke-linejoin:bevel;stroke-miterlimit:0;stroke-dasharray:none;stroke-opacity:1" />
          </g>
          <g
             transform="translate(14,9.9999835)"
             id="g4200">
            <rect
               style="fill:#ffffff;fill-opacity:1;stroke:none;stroke-width:1;stroke-linecap:butt;stroke-linejoin:bevel;stroke-miterlimit:0;stroke-dasharray:none;stroke-opacity:1"
               id="rect4202"
               width="10"
               height="9.999959"
               x="-44"
               y="1072.3622" />
          </g>
        </g>
      </g>
      <g
         transform="matrix(1,0,0,0.90909085,1.5,84.669347)"
         id="g4309"
         style="display:inline">
        <g
           id="g4291"
           transform="matrix(0.94736842,0,0,1,-0.55263159,-4.6134119e-8)">
          <g
             transform="translate(18,-1.6281604e-5)"
             id="g4249" />
          <g
             transform="matrix(-0.9,0,0,1,-16.8,-1.6438461e-5)"
             id="g4254">
            <rect
               ry="5"
               y="1074.3622"
               x="-17"
               height="22"
               width="10"
               id="rect4256"
               style="fill:#ffffff;fill-opacity:1;stroke:none;stroke-width:1;stroke-linecap:butt;stroke-linejoin:bevel;stroke-miterlimit:0;stroke-dasharray:none;stroke-opacity:1" />
            <rect
               y="1074.3622"
               x="-17"
               height="22"
               width="5"
               id="rect4258"
               style="fill:#ffffff;fill-opacity:1;stroke:none;stroke-width:1;stroke-linecap:butt;stroke-linejoin:bevel;stroke-miterlimit:0;stroke-dasharray:none;stroke-opacity:1" />
            <rect
               y="1091.3622"
               x="-17"
               height="5"
               width="10"
               id="rect4260"
               style="fill:#ffffff;fill-opacity:1;stroke:none;stroke-width:1;stroke-linecap:butt;stroke-linejoin:bevel;stroke-miterlimit:0;stroke-dasharray:none;stroke-opacity:1" />
          </g>
          <g
             id="g4301"
             transform="matrix(0.9,0,0,1,14.8,-1.6438461e-5)">
            <rect
               style="fill:#ffffff;fill-opacity:1;stroke:none;stroke-width:1;stroke-linecap:butt;stroke-linejoin:bevel;stroke-miterlimit:0;stroke-dasharray:none;stroke-opacity:1"
               id="rect4303"
               width="10"
               height="22"
               x="-17"
               y="1074.3622"
               ry="5" />
            <rect
               style="fill:#ffffff;fill-opacity:1;stroke:none;stroke-width:1;stroke-linecap:butt;stroke-linejoin:bevel;stroke-miterlimit:0;stroke-dasharray:none;stroke-opacity:1"
               id="rect4305"
               width="5"
               height="22"
               x="-17"
               y="1074.3622" />
            <rect
               style="fill:#ffffff;fill-opacity:1;stroke:none;stroke-width:1;stroke-linecap:butt;stroke-linejoin:bevel;stroke-miterlimit:0;stroke-dasharray:none;stroke-opacity:1"
               id="rect4307"
               width="10"
               height="5"
               x="-17"
               y="1091.3622" />
          </g>
        </g>
      </g>
      <path
         inkscape:connector-curvature="0"
         id="path4325"
         d="m -23,1066.3622 46,0 -23,-18 -23,18"
         style="display:inline;fill:#000000;fill-rule:evenodd;stroke:#000000;stroke-width:0.1;stroke-linecap:butt;stroke-linejoin:miter;stroke-miterlimit:4;stroke-dasharray:none;stroke-opacity:1"
         transform="translate(0,-26)" />
      <g
         transform="translate(0,-40)"
         id="g4250"
         style="display:inline">
        <rect
           style="fill:#000000;fill-opacity:1;stroke:none;stroke-width:1;stroke-linecap:butt;stroke-linejoin:bevel;stroke-miterlimit:0;stroke-dasharray:none;stroke-opacity:1"
           id="rect4328"
           width="38"
           height="12.999954"
           x="-19"
           y="1079.8622" />
        <g
           id="g4338"
           transform="translate(0,26.999982)">
          <path
             d="m 7,1059.3622 a 7,7 0 0 1 -6.54217806,6.985 7,7 0 0 1 -7.39793594,-6.0713 7,7 0 0 1 5.5744816,-7.7792 7,7 0 0 1 8.1271131,5.0537"
             sodipodi:open="true"
             sodipodi:end="6.0213859"
             sodipodi:start="0"
             sodipodi:ry="7"
             sodipodi:rx="7"
             sodipodi:cy="1059.3622"
             sodipodi:cx="0"
             sodipodi:type="arc"
             id="path4330"
             style="fill:#ffffff;fill-opacity:1;stroke:none;stroke-width:1;stroke-linecap:butt;stroke-linejoin:bevel;stroke-miterlimit:0;stroke-dasharray:none;stroke-opacity:1" />
          <path
             inkscape:connector-curvature="0"
             id="path4332"
             d="m 0,1053.3622 0,6 -4,2"
             style="fill:none;fill-rule:evenodd;stroke:#000000;stroke-width:1px;stroke-linecap:round;stroke-linejoin:miter;stroke-opacity:1" />
        </g>
      </g>
      <g
         transform="translate(0,3.999967)"
         id="g4246">
        <path
           transform="translate(0,-27)"
           inkscape:connector-curvature="0"
           id="path4334"
           d="m 0,1046.3622 0,-15"
           style="display:inline;fill:#000000;fill-rule:evenodd;stroke:#000000;stroke-width:0.61237395;stroke-linecap:butt;stroke-linejoin:miter;stroke-miterlimit:4;stroke-dasharray:none;stroke-opacity:1" />
        <path
           style="fill:#000000;fill-rule:evenodd;stroke:none;stroke-width:1px;stroke-linecap:butt;stroke-linejoin:miter;stroke-opacity:1"
           d="m 14,1004.3622 c 0,0 -5,2 -7,0 -2,-2 -7,0 -7,0 l 0,8 c 0,0 5,-2 7,0 2,2 7,0 7,0 z"
           id="path4548"
           inkscape:connector-curvature="0"
           sodipodi:nodetypes="csccscc" />
      </g>
      <g
         transform="translate(61,-14)"
         id="g4215">
        <g
           transform="translate(1,1)"
           id="g4217"
           style="display:inline">
          <g
             transform="translate(1,-3.0000163)"
             id="g4219">
            <rect
               y="1072.3622"
               x="-44"
               height="9.999959"
               width="10"
               id="rect4221"
               style="fill:#ffffff;fill-opacity:1;stroke:none;stroke-width:1;stroke-linecap:butt;stroke-linejoin:bevel;stroke-miterlimit:0;stroke-dasharray:none;stroke-opacity:1" />
          </g>
          <g
             transform="translate(14,-3.0000163)"
             id="g4223">
            <rect
               style="fill:#ffffff;fill-opacity:1;stroke:none;stroke-width:1;stroke-linecap:butt;stroke-linejoin:bevel;stroke-miterlimit:0;stroke-dasharray:none;stroke-opacity:1"
               id="rect4225"
               width="10"
               height="9.999959"
               x="-44"
               y="1072.3622" />
          </g>
          <g
             id="g4227"
             transform="translate(1,9.9999835)">
            <rect
               style="fill:#ffffff;fill-opacity:1;stroke:none;stroke-width:1;stroke-linecap:butt;stroke-linejoin:bevel;stroke-miterlimit:0;stroke-dasharray:none;stroke-opacity:1"
               id="rect4229"
               width="10"
               height="9.999959"
               x="-44"
               y="1072.3622" />
          </g>
          <g
             id="g4232"
             transform="translate(14,9.9999835)">
            <rect
               y="1072.3622"
               x="-44"
               height="9.999959"
               width="10"
               id="rect4234"
               style="fill:#ffffff;fill-opacity:1;stroke:none;stroke-width:1;stroke-linecap:butt;stroke-linejoin:bevel;stroke-miterlimit:0;stroke-dasharray:none;stroke-opacity:1" />
          </g>
        </g>
      </g>
      <rect
         transform="scale(1,-1)"
         style="display:inline;fill:#000000;fill-opacity:1;stroke:none;stroke-width:1;stroke-linecap:butt;stroke-linejoin:bevel;stroke-miterlimit:0;stroke-dasharray:none;stroke-opacity:1"
         id="rect4257"
         width="38"
         height="1.9999424"
         x="-19"
         y="-1097.3622" />
      <rect
         transform="scale(1,-1)"
         y="-1094.3622"
         x="-15"
         height="1.9999424"
         width="30"
         id="rect4259"
         style="display:inline;fill:#000000;fill-opacity:1;stroke:none;stroke-width:1;stroke-linecap:butt;stroke-linejoin:bevel;stroke-miterlimit:0;stroke-dasharray:none;stroke-opacity:1" />
      <rect
         transform="scale(1,-1)"
         style="display:inline;fill:#000000;fill-opacity:1;stroke:none;stroke-width:1;stroke-linecap:butt;stroke-linejoin:bevel;stroke-miterlimit:0;stroke-dasharray:none;stroke-opacity:1"
         id="rect4261"
         width="22"
         height="1.9999424"
         x="-11"
         y="-1091.3622" />
    </g>
  </g>
  <g
     inkscape:groupmode="layer"
     id="layer3"
     inkscape:label="text"
     transform="translate(50,-945.11112)" />
</svg>
