<?xml version="1.0" encoding="UTF-8" standalone="no"?>
<svg
   xmlns:dc="http://purl.org/dc/elements/1.1/"
   xmlns:cc="http://creativecommons.org/ns#"
   xmlns:rdf="http://www.w3.org/1999/02/22-rdf-syntax-ns#"
   xmlns:svg="http://www.w3.org/2000/svg"
   xmlns="http://www.w3.org/2000/svg"
   xmlns:sodipodi="http://sodipodi.sourceforge.net/DTD/sodipodi-0.dtd"
   xmlns:inkscape="http://www.inkscape.org/namespaces/inkscape"
   version="1.1"
   id="svg2"
   viewBox="0 0 100 100"
   height="100"
   width="100"
   inkscape:version="0.91 r13725"
   sodipodi:docname="search.svg">
  <sodipodi:namedview
     pagecolor="#ffffff"
     bordercolor="#666666"
     borderopacity="1"
     objecttolerance="10"
     gridtolerance="10"
     guidetolerance="10"
     inkscape:pageopacity="0"
     inkscape:pageshadow="2"
     inkscape:window-width="1920"
     inkscape:window-height="1035"
     id="namedview14"
     showgrid="true"
     inkscape:showpageshadow="false"
     showborder="false"
     showguides="false"
     inkscape:guide-bbox="true"
     inkscape:object-paths="true"
     inkscape:snap-smooth-nodes="true"
     inkscape:zoom="3.337544"
     inkscape:cx="43.857759"
     inkscape:cy="46.063847"
     inkscape:window-x="0"
     inkscape:window-y="1"
     inkscape:window-maximized="1"
     inkscape:current-layer="g4175">
    <inkscape:grid
       type="xygrid"
       id="grid4142" />
    <sodipodi:guide
       position="0,0"
       orientation="1,0"
       id="guide4144" />
    <sodipodi:guide
       position="100,0"
       orientation="1,0"
       id="guide4146" />
    <sodipodi:guide
       position="0,0"
       orientation="0,1"
       id="guide4148" />
    <sodipodi:guide
       position="0,100"
       orientation="0,1"
       id="guide4150" />
  </sodipodi:namedview>
  <defs
     id="defs4" />
  <metadata
     id="metadata7">
    <rdf:RDF>
      <cc:Work
         rdf:about="">
        <dc:format>image/svg+xml</dc:format>
        <dc:type
           rdf:resource="http://purl.org/dc/dcmitype/StillImage" />
        <dc:title></dc:title>
      </cc:Work>
    </rdf:RDF>
  </metadata>
  <g
     id="g4164"
     transform="matrix(1.10905,0,0,1.10905,0,-0.2715)">
    <g
       id="g4175"
       transform="matrix(0.72841963,-0.72841963,0.72841963,0.72841963,-12.835863,31.114119)"
       inkscape:export-xdpi="90"
       inkscape:export-ydpi="90">
      <g
         id="g4160"
         inkscape:export-xdpi="90"
         inkscape:export-ydpi="90">
        <path
           style="opacity:1;fill:#000000;fill-opacity:1;fill-rule:nonzero;stroke:none;stroke-opacity:1"
           d="M 34.736328 -0.03515625 A 34.274334 34.274334 0 0 0 10 10 A 34.274334 34.274334 0 0 0 10 58.470703 A 34.274334 34.274334 0 0 0 58.470703 58.470703 A 34.274334 34.274334 0 0 0 58.470703 10 A 34.274334 34.274334 0 0 0 34.736328 -0.03515625 z M 34.568359 11.388672 A 22.849556 22.849556 0 0 1 50.392578 18.078125 A 22.849556 22.849556 0 0 1 50.392578 50.392578 A 22.849556 22.849556 0 0 1 18.078125 50.392578 A 22.849556 22.849556 0 0 1 18.078125 18.078125 A 22.849556 22.849556 0 0 1 34.568359 11.388672 z "
           transform="matrix(0.61892388,0.61892388,-0.61892388,0.61892388,30,-12.378477)"
           id="path4152" />
      </g>
      <rect
         ry="6.7625446"
         y="52.028919"
         x="23.134439"
         height="56.416595"
         width="13.731121"
         id="rect4170"
         style="opacity:1;fill:#000000;fill-opacity:1;fill-rule:nonzero;stroke:none;stroke-opacity:1"
         inkscape:export-xdpi="90"
         inkscape:export-ydpi="90" />
    </g>
  </g>
</svg>
